# MagicaVoxel @ Ephtracy

# group
o 

# material
mtllib bulletRed.mtl
usemtl palette

# normals
vn -1 0 0
vn 1 0 0
vn 0 0 1
vn 0 0 -1
vn 0 -1 0
vn 0 1 0

# texcoords
vt 0.279297 0.5
vt 0.841797 0.5
vt 0.845703 0.5
vt 0.849609 0.5

# verts
v -0.3 0.2 0.4
v -0.3 0.2 0.3
v -0.3 0.2 -0.1
v -0.3 0.2 -0.2
v -0.3 0.2 -0.3
v -0.3 0.2 -0.4
v -0.3 0.2 -0.5
v -0.3 0.2 -0.6
v -0.3 0.3 -0.1
v -0.3 0.3 -0.2
v -0.3 0.3 -0.3
v -0.3 0.3 -0.4
v -0.3 0.3 -0.5
v -0.3 0.3 -0.6
v -0.3 0.4 0.4
v -0.3 0.4 0.3
v -0.2 0.1 0.4
v -0.2 0.1 -0.2
v -0.2 0.2 1
v -0.2 0.2 0.9
v -0.2 0.2 0.8
v -0.2 0.2 0.7
v -0.2 0.2 0.6
v -0.2 0.2 0.5
v -0.2 0.2 0.4
v -0.2 0.2 0.3
v -0.2 0.2 0.1
v -0.2 0.2 0
v -0.2 0.2 -0.1
v -0.2 0.2 -0.2
v -0.2 0.2 -0.3
v -0.2 0.3 1
v -0.2 0.3 0.9
v -0.2 0.3 0.8
v -0.2 0.3 0.7
v -0.2 0.3 0.5
v -0.2 0.3 0.4
v -0.2 0.3 0.3
v -0.2 0.3 0.1
v -0.2 0.3 0
v -0.2 0.3 -0.2
v -0.2 0.3 -0.3
v -0.2 0.4 0.9
v -0.2 0.4 0.8
v -0.2 0.4 0.6
v -0.2 0.4 0.5
v -0.2 0.4 0.4
v -0.1 0.2 0.9
v -0.1 0.2 0.8
v -0.1 0.2 0.7
v -0.1 0.2 0.6
v -0.1 0.2 0.5
v -0.1 0.2 0.4
v -0.1 0.2 0
v -0.1 0.2 -0.1
v -0.1 0.2 -0.4
v -0.1 0.2 -0.5
v -0.1 0.2 -1
v -0.1 0.3 1
v -0.1 0.3 0.9
v -0.1 0.3 0.8
v -0.1 0.3 0.7
v -0.1 0.3 0.6
v -0.1 0.3 0.5
v -0.1 0.3 0.4
v -0.1 0.3 0.3
v -0.1 0.3 0.1
v -0.1 0.3 0
v -0.1 0.3 -0.1
v -0.1 0.3 -0.2
v -0.1 0.3 -0.4
v -0.1 0.3 -0.5
v -0.1 0.3 -1
v -0.1 0.4 1
v -0.1 0.4 0.9
v -0.1 0.4 0.8
v -0.1 0.4 0.7
v -0.1 0.4 0.6
v -0.1 0.4 0.4
v -0.1 0.4 0.3
v -0.1 0.4 0.2
v -0.1 0.4 0.1
v -0.1 0.4 0
v -0.1 0.4 -0.2
v -0.1 0.5 0.8
v -0.1 0.5 0.7
v -0.1 0.5 0.6
v -0.1 0.5 0.4
v -0.1 0.5 0.3
v -0.1 0.5 0.2
v 0 0.1 0.8
v 0 0.1 0.4
v 0 0.1 -0.1
v 0 0.1 -0.2
v 0 0.2 0.8
v 0 0.2 0.4
v 0 0.2 -0.1
v 0 0.2 -0.2
v 0.1 0.1 -0.2
v 0.1 0.1 -0.3
v 0.1 0.1 -0.4
v 0.1 0.1 -0.5
v 0.1 0.2 -0.2
v 0.1 0.2 -0.3
v 0.1 0.2 -0.4
v 0.1 0.2 -0.5
v -0.2 0.2 -0.4
v -0.2 0.2 -0.5
v -0.2 0.2 -0.6
v -0.2 0.3 -0.4
v -0.2 0.3 -0.5
v -0.2 0.3 -0.6
v -0.1 0.1 -0.1
v -0.1 0.1 -0.2
v -0.1 0.2 -0.1
v -0.1 0.2 -0.2
v 0 0.2 0.2
v 0 0.2 0.1
v 0 0.2 0
v 0 0.2 -0.1
v 0 0.2 -0.2
v 0 0.2 -0.5
v 0 0.2 -1
v 0 0.3 1
v 0 0.3 0.9
v 0 0.3 0.8
v 0 0.3 0.7
v 0 0.3 0.6
v 0 0.3 0.4
v 0 0.3 0.3
v 0 0.3 0.2
v 0 0.3 0.1
v 0 0.3 0
v 0 0.3 -0.1
v 0 0.3 -0.2
v 0 0.3 -0.5
v 0 0.3 -1
v 0 0.4 1
v 0 0.4 0.8
v 0 0.4 0.7
v 0 0.4 0.6
v 0 0.4 0.4
v 0 0.4 0.3
v 0 0.4 0.2
v 0 0.4 0.1
v 0 0.4 0
v 0 0.4 -0.2
v 0 0.5 0.8
v 0 0.5 0.7
v 0 0.5 0.6
v 0 0.5 0.4
v 0 0.5 0.3
v 0 0.5 0.2
v 0.1 0.1 0.7
v 0.1 0.1 0.6
v 0.1 0.1 0.5
v 0.1 0.1 0.2
v 0.1 0.1 0.1
v 0.1 0.1 0
v 0.1 0.2 0.9
v 0.1 0.2 0.8
v 0.1 0.2 0.7
v 0.1 0.2 0.6
v 0.1 0.2 0.5
v 0.1 0.2 0.2
v 0.1 0.2 0.1
v 0.1 0.2 0
v 0.1 0.2 -0.1
v 0.1 0.2 -0.2
v 0.1 0.3 0.9
v 0.1 0.3 0.8
v 0.1 0.3 0.7
v 0.1 0.3 0.6
v 0.1 0.3 0.4
v 0.1 0.3 0.3
v 0.1 0.3 0.2
v 0.1 0.3 0.1
v 0.1 0.3 0
v 0.1 0.3 -0.1
v 0.1 0.3 -0.2
v 0.1 0.4 0.7
v 0.1 0.4 0.6
v 0.1 0.4 0.4
v 0.1 0.4 0.3
v 0.2 0.1 0.8
v 0.2 0.1 0.7
v 0.2 0.1 0.6
v 0.2 0.1 0.5
v 0.2 0.1 0.2
v 0.2 0.1 0.1
v 0.2 0.1 0
v 0.2 0.1 -0.3
v 0.2 0.1 -0.4
v 0.2 0.1 -0.5
v 0.2 0.2 1
v 0.2 0.2 0.9
v 0.2 0.2 0.8
v 0.2 0.2 0.7
v 0.2 0.2 0.6
v 0.2 0.2 0.5
v 0.2 0.2 0.2
v 0.2 0.2 0.1
v 0.2 0.2 0
v 0.2 0.2 -0.3
v 0.2 0.2 -0.4
v 0.2 0.2 -0.5
v 0.2 0.3 1
v 0.2 0.3 0.9
v -0.2 0.2 1
v -0.2 0.3 1
v -0.1 0.2 1
v -0.1 0.3 1
v -0.1 0.4 1
v 0 0.2 1
v 0 0.3 1
v 0 0.4 1
v 0.1 0.2 1
v 0.1 0.3 1
v 0.2 0.2 1
v 0.2 0.3 1
v -0.2 0.3 0.9
v -0.2 0.4 0.9
v -0.1 0.3 0.9
v -0.1 0.4 0.9
v -0.2 0.2 0.8
v -0.2 0.3 0.8
v -0.1 0.2 0.8
v -0.1 0.3 0.8
v -0.1 0.4 0.8
v -0.1 0.5 0.8
v 0 0.1 0.8
v 0 0.2 0.8
v 0 0.4 0.8
v 0 0.5 0.8
v 0.1 0.1 0.8
v 0.1 0.2 0.8
v 0.2 0.1 0.8
v 0.2 0.2 0.8
v 0 0.3 0.7
v 0 0.4 0.7
v 0.1 0.3 0.7
v 0.1 0.4 0.7
v -0.2 0.2 0.6
v -0.2 0.4 0.6
v -0.1 0.2 0.6
v -0.1 0.3 0.6
v -0.1 0.4 0.6
v 0.1 0.1 0.6
v 0.1 0.2 0.6
v 0.2 0.1 0.6
v 0.2 0.2 0.6
v -0.3 0.2 0.4
v -0.3 0.4 0.4
v -0.2 0.1 0.4
v -0.2 0.2 0.4
v -0.2 0.3 0.4
v -0.2 0.4 0.4
v -0.1 0.2 0.4
v -0.1 0.3 0.4
v -0.1 0.4 0.4
v -0.1 0.5 0.4
v 0 0.1 0.4
v 0 0.2 0.4
v 0 0.3 0.4
v 0 0.4 0.4
v 0 0.5 0.4
v 0.1 0.3 0.4
v 0.1 0.4 0.4
v 0.1 0.1 0.2
v 0.1 0.2 0.2
v 0.2 0.1 0.2
v 0.2 0.2 0.2
v 0 0.2 0.1
v 0 0.3 0.1
v 0.1 0.2 0.1
v 0.1 0.3 0.1
v -0.1 0.3 0
v -0.1 0.4 0
v 0 0.3 0
v 0 0.4 0
v 0.1 0.1 0
v 0.1 0.2 0
v 0.2 0.1 0
v 0.2 0.2 0
v -0.3 0.2 -0.1
v -0.3 0.3 -0.1
v -0.2 0.2 -0.1
v -0.1 0.2 -0.1
v -0.1 0.3 -0.1
v 0 0.2 -0.1
v 0 0.3 -0.1
v 0.1 0.2 -0.1
v 0.1 0.3 -0.1
v -0.3 0.2 -0.3
v -0.3 0.3 -0.3
v -0.2 0.2 -0.3
v -0.2 0.3 -0.3
v -0.2 0.2 0.9
v -0.2 0.3 0.9
v -0.1 0.2 0.9
v -0.1 0.3 0.9
v 0.1 0.2 0.9
v 0.1 0.3 0.9
v 0.2 0.2 0.9
v 0.2 0.3 0.9
v -0.2 0.3 0.8
v -0.2 0.4 0.8
v -0.1 0.3 0.8
v -0.1 0.4 0.8
v -0.2 0.2 0.7
v -0.2 0.3 0.7
v -0.1 0.2 0.7
v -0.1 0.3 0.7
v 0.1 0.1 0.7
v 0.1 0.2 0.7
v 0.2 0.1 0.7
v 0.2 0.2 0.7
v -0.1 0.4 0.6
v -0.1 0.5 0.6
v 0 0.3 0.6
v 0 0.4 0.6
v 0 0.5 0.6
v 0.1 0.3 0.6
v 0.1 0.4 0.6
v -0.2 0.2 0.5
v -0.2 0.3 0.5
v -0.1 0.2 0.5
v -0.1 0.3 0.5
v 0.1 0.1 0.5
v 0.1 0.2 0.5
v 0.2 0.1 0.5
v 0.2 0.2 0.5
v -0.3 0.2 0.3
v -0.3 0.4 0.3
v -0.2 0.2 0.3
v -0.2 0.3 0.3
v -0.2 0.4 0.3
v -0.1 0.3 0.3
v -0.1 0.4 0.3
v 0 0.3 0.3
v 0 0.4 0.3
v 0.1 0.3 0.3
v 0.1 0.4 0.3
v -0.1 0.4 0.2
v -0.1 0.5 0.2
v 0 0.2 0.2
v 0 0.3 0.2
v 0 0.4 0.2
v 0 0.5 0.2
v 0.1 0.2 0.2
v 0.1 0.3 0.2
v -0.1 0.3 0.1
v -0.1 0.4 0.1
v 0 0.3 0.1
v 0 0.4 0.1
v 0.1 0.1 0.1
v 0.1 0.2 0.1
v 0.2 0.1 0.1
v 0.2 0.2 0.1
v -0.2 0.2 0
v -0.2 0.3 0
v -0.1 0.2 0
v -0.1 0.3 0
v 0 0.2 0
v 0 0.3 0
v 0.1 0.2 0
v 0.1 0.3 0
v -0.1 0.1 -0.1
v -0.1 0.2 -0.1
v 0 0.1 -0.1
v 0 0.2 -0.1
v -0.3 0.2 -0.2
v -0.3 0.3 -0.2
v -0.2 0.1 -0.2
v -0.2 0.2 -0.2
v -0.2 0.3 -0.2
v -0.1 0.1 -0.2
v -0.1 0.2 -0.2
v -0.1 0.3 -0.2
v -0.1 0.4 -0.2
v 0 0.1 -0.2
v 0 0.2 -0.2
v 0 0.3 -0.2
v 0 0.4 -0.2
v 0.1 0.1 -0.2
v 0.1 0.2 -0.2
v 0.1 0.3 -0.2
v -0.2 0.2 -0.4
v -0.2 0.3 -0.4
v -0.1 0.2 -0.4
v -0.1 0.3 -0.4
v 0.1 0.1 -0.5
v 0.1 0.2 -0.5
v 0.2 0.1 -0.5
v 0.2 0.2 -0.5
v -0.3 0.2 -0.6
v -0.3 0.3 -0.6
v -0.2 0.2 -0.6
v -0.2 0.3 -0.6
v -0.1 0.2 -1
v -0.1 0.3 -1
v 0 0.2 -1
v 0 0.3 -1
v 0 0.1 0.8
v 0.1 0.1 0.8
v 0.2 0.1 0.8
v 0.1 0.1 0.7
v 0.2 0.1 0.7
v 0.1 0.1 0.6
v 0.2 0.1 0.6
v 0.1 0.1 0.5
v 0.2 0.1 0.5
v -0.2 0.1 0.4
v 0 0.1 0.4
v 0.1 0.1 0.2
v 0.2 0.1 0.2
v 0.1 0.1 0.1
v 0.2 0.1 0.1
v 0.1 0.1 0
v 0.2 0.1 0
v -0.1 0.1 -0.1
v 0 0.1 -0.1
v -0.2 0.1 -0.2
v -0.1 0.1 -0.2
v 0 0.1 -0.2
v 0.1 0.1 -0.2
v 0.1 0.1 -0.3
v 0.2 0.1 -0.3
v 0.1 0.1 -0.4
v 0.2 0.1 -0.4
v 0.1 0.1 -0.5
v 0.2 0.1 -0.5
v -0.2 0.2 1
v -0.1 0.2 1
v 0 0.2 1
v 0.1 0.2 1
v 0.2 0.2 1
v -0.2 0.2 0.9
v -0.1 0.2 0.9
v 0 0.2 0.9
v 0.1 0.2 0.9
v 0.2 0.2 0.9
v -0.2 0.2 0.8
v -0.1 0.2 0.8
v 0 0.2 0.8
v 0.1 0.2 0.8
v -0.2 0.2 0.7
v -0.1 0.2 0.7
v -0.2 0.2 0.6
v -0.1 0.2 0.6
v -0.2 0.2 0.5
v -0.1 0.2 0.5
v -0.3 0.2 0.4
v -0.2 0.2 0.4
v -0.1 0.2 0.4
v 0 0.2 0.4
v -0.3 0.2 0.3
v -0.2 0.2 0.3
v -0.3 0.2 -0.1
v -0.2 0.2 -0.1
v -0.1 0.2 -0.1
v 0 0.2 -0.1
v -0.3 0.2 -0.2
v -0.2 0.2 -0.2
v -0.1 0.2 -0.2
v 0 0.2 -0.2
v -0.3 0.2 -0.3
v -0.2 0.2 -0.3
v -0.3 0.2 -0.4
v -0.2 0.2 -0.4
v -0.1 0.2 -0.4
v -0.3 0.2 -0.5
v -0.2 0.2 -0.5
v -0.1 0.2 -0.5
v 0 0.2 -0.5
v -0.3 0.2 -0.6
v -0.2 0.2 -0.6
v -0.1 0.2 -1
v 0 0.2 -1
v -0.2 0.3 0.9
v -0.1 0.3 0.9
v -0.2 0.3 0.8
v -0.1 0.3 0.8
v -0.2 0.3 0.5
v -0.1 0.3 0.5
v -0.2 0.3 0.4
v -0.1 0.3 0.4
v 0.1 0.2 0.8
v 0.2 0.2 0.8
v 0.1 0.2 0.7
v 0.2 0.2 0.7
v 0.1 0.2 0.6
v 0.2 0.2 0.6
v 0.1 0.2 0.5
v 0.2 0.2 0.5
v 0 0.2 0.2
v 0.1 0.2 0.2
v 0.2 0.2 0.2
v 0 0.2 0.1
v 0.1 0.2 0.1
v 0.2 0.2 0.1
v -0.2 0.2 0
v -0.1 0.2 0
v 0 0.2 0
v 0.1 0.2 0
v 0.2 0.2 0
v -0.2 0.2 -0.1
v -0.1 0.2 -0.1
v 0 0.2 -0.1
v 0.1 0.2 -0.1
v 0.1 0.2 -0.2
v 0.1 0.2 -0.3
v 0.2 0.2 -0.3
v 0.1 0.2 -0.4
v 0.2 0.2 -0.4
v 0.1 0.2 -0.5
v 0.2 0.2 -0.5
v -0.2 0.3 1
v -0.1 0.3 1
v 0 0.3 1
v 0.1 0.3 1
v 0.2 0.3 1
v -0.2 0.3 0.9
v -0.1 0.3 0.9
v 0 0.3 0.9
v 0.1 0.3 0.9
v 0.2 0.3 0.9
v -0.2 0.3 0.8
v -0.1 0.3 0.8
v 0 0.3 0.8
v 0.1 0.3 0.8
v -0.2 0.3 0.7
v -0.1 0.3 0.7
v 0 0.3 0.7
v 0.1 0.3 0.7
v 0 0.3 0.6
v 0.1 0.3 0.6
v 0 0.3 0.4
v 0.1 0.3 0.4
v -0.2 0.3 0.3
v -0.1 0.3 0.3
v 0 0.3 0.3
v 0.1 0.3 0.3
v 0 0.3 0.2
v 0.1 0.3 0.2
v -0.2 0.3 0.1
v -0.1 0.3 0.1
v 0 0.3 0.1
v 0.1 0.3 0.1
v -0.2 0.3 0
v -0.1 0.3 0
v 0 0.3 0
v 0.1 0.3 0
v -0.3 0.3 -0.1
v -0.1 0.3 -0.1
v 0 0.3 -0.1
v 0.1 0.3 -0.1
v -0.3 0.3 -0.2
v -0.2 0.3 -0.2
v -0.1 0.3 -0.2
v 0 0.3 -0.2
v 0.1 0.3 -0.2
v -0.3 0.3 -0.3
v -0.2 0.3 -0.3
v -0.3 0.3 -0.4
v -0.2 0.3 -0.4
v -0.1 0.3 -0.4
v -0.3 0.3 -0.5
v -0.2 0.3 -0.5
v -0.1 0.3 -0.5
v 0 0.3 -0.5
v -0.3 0.3 -0.6
v -0.2 0.3 -0.6
v -0.1 0.3 -1
v 0 0.3 -1
v -0.1 0.4 1
v 0 0.4 1
v -0.2 0.4 0.9
v -0.1 0.4 0.9
v -0.2 0.4 0.8
v -0.1 0.4 0.8
v 0 0.4 0.8
v 0 0.4 0.7
v 0.1 0.4 0.7
v -0.2 0.4 0.6
v -0.1 0.4 0.6
v 0 0.4 0.6
v 0.1 0.4 0.6
v -0.2 0.4 0.5
v -0.1 0.4 0.5
v -0.3 0.4 0.4
v -0.2 0.4 0.4
v -0.1 0.4 0.4
v 0 0.4 0.4
v 0.1 0.4 0.4
v -0.3 0.4 0.3
v -0.2 0.4 0.3
v -0.1 0.4 0.3
v 0 0.4 0.3
v 0.1 0.4 0.3
v -0.1 0.4 0.2
v 0 0.4 0.2
v -0.1 0.4 0.1
v 0 0.4 0.1
v -0.1 0.4 0
v 0 0.4 0
v -0.1 0.4 -0.2
v 0 0.4 -0.2
v -0.1 0.5 0.8
v 0 0.5 0.8
v -0.1 0.5 0.7
v 0 0.5 0.7
v -0.1 0.5 0.6
v 0 0.5 0.6
v -0.1 0.5 0.4
v 0 0.5 0.4
v -0.1 0.5 0.3
v 0 0.5 0.3
v -0.1 0.5 0.2
v 0 0.5 0.2

# faces
f 9/4/1 4/4/1 3/4/1
f 10/4/1 4/4/1 9/4/1
f 11/4/1 6/4/1 5/4/1
f 12/3/1 7/3/1 6/3/1
f 12/4/1 6/4/1 11/4/1
f 13/2/1 8/2/1 7/2/1
f 13/3/1 7/3/1 12/3/1
f 14/2/1 8/2/1 13/2/1
f 15/4/1 2/4/1 1/4/1
f 16/4/1 2/4/1 15/4/1
f 25/2/1 18/2/1 17/2/1
f 26/2/1 18/2/1 25/2/1
f 27/2/1 18/2/1 26/2/1
f 28/2/1 18/2/1 27/2/1
f 29/2/1 18/2/1 28/2/1
f 30/2/1 18/2/1 29/2/1
f 32/2/1 20/2/1 19/2/1
f 33/2/1 20/2/1 32/2/1
f 34/2/1 22/2/1 21/2/1
f 35/2/1 22/2/1 34/2/1
f 36/2/1 24/2/1 23/2/1
f 38/3/1 27/3/1 26/3/1
f 39/4/1 28/4/1 27/4/1
f 39/3/1 27/3/1 38/3/1
f 40/4/1 28/4/1 39/4/1
f 41/4/1 31/4/1 30/4/1
f 42/4/1 31/4/1 41/4/1
f 43/2/1 34/2/1 33/2/1
f 44/2/1 34/2/1 43/2/1
f 45/2/1 36/2/1 23/2/1
f 46/4/1 37/4/1 36/4/1
f 46/2/1 36/2/1 45/2/1
f 47/4/1 37/4/1 46/4/1
f 60/1/1 49/1/1 48/1/1
f 61/1/1 49/1/1 60/1/1
f 62/1/1 51/1/1 50/1/1
f 63/1/1 51/1/1 62/1/1
f 64/1/1 53/1/1 52/1/1
f 65/1/1 53/1/1 64/1/1
f 68/3/1 55/3/1 54/3/1
f 69/3/1 55/3/1 68/3/1
f 71/3/1 57/3/1 56/3/1
f 72/4/1 58/4/1 57/4/1
f 72/3/1 57/3/1 71/3/1
f 73/4/1 58/4/1 72/4/1
f 74/2/1 60/2/1 59/2/1
f 75/2/1 60/2/1 74/2/1
f 76/2/1 63/2/1 62/2/1
f 76/2/1 62/2/1 61/2/1
f 77/2/1 63/2/1 76/2/1
f 78/2/1 63/2/1 77/2/1
f 80/3/1 67/3/1 66/3/1
f 81/3/1 67/3/1 80/3/1
f 82/3/1 67/3/1 81/3/1
f 83/4/1 70/4/1 69/4/1
f 83/4/1 69/4/1 68/4/1
f 84/4/1 70/4/1 83/4/1
f 85/3/1 77/3/1 76/3/1
f 86/4/1 78/4/1 77/4/1
f 86/3/1 77/3/1 85/3/1
f 87/4/1 78/4/1 86/4/1
f 88/3/1 80/3/1 79/3/1
f 89/4/1 81/4/1 80/4/1
f 89/3/1 80/3/1 88/3/1
f 90/4/1 81/4/1 89/4/1
f 95/2/1 92/2/1 91/2/1
f 96/2/1 92/2/1 95/2/1
f 97/2/1 94/2/1 93/2/1
f 98/2/1 94/2/1 97/2/1
f 103/4/1 100/4/1 99/4/1
f 104/3/1 101/3/1 100/3/1
f 104/4/1 100/4/1 103/4/1
f 105/2/1 102/2/1 101/2/1
f 105/3/1 101/3/1 104/3/1
f 106/2/1 102/2/1 105/2/1
f 107/3/2 108/3/2 110/3/2
f 108/2/2 109/2/2 111/2/2
f 110/3/2 108/3/2 111/3/2
f 111/2/2 109/2/2 112/2/2
f 113/2/2 114/2/2 115/2/2
f 115/2/2 114/2/2 116/2/2
f 117/2/2 118/2/2 131/2/2
f 131/2/2 118/2/2 132/2/2
f 119/3/2 120/3/2 133/3/2
f 133/3/2 120/3/2 134/3/2
f 121/3/2 122/3/2 135/3/2
f 122/4/2 123/4/2 136/4/2
f 135/3/2 122/3/2 136/3/2
f 136/4/2 123/4/2 137/4/2
f 124/2/2 125/2/2 138/2/2
f 125/2/2 126/2/2 138/2/2
f 126/2/2 127/2/2 138/2/2
f 138/2/2 127/2/2 139/2/2
f 139/2/2 127/2/2 140/2/2
f 128/2/2 129/2/2 141/2/2
f 141/2/2 129/2/2 142/2/2
f 131/3/2 132/3/2 143/3/2
f 130/3/2 131/3/2 143/3/2
f 143/3/2 132/3/2 144/3/2
f 144/3/2 132/3/2 145/3/2
f 133/4/2 134/4/2 146/4/2
f 134/4/2 135/4/2 146/4/2
f 146/4/2 135/4/2 147/4/2
f 139/3/2 140/3/2 148/3/2
f 140/4/2 141/4/2 149/4/2
f 148/3/2 140/3/2 149/3/2
f 149/4/2 141/4/2 150/4/2
f 142/3/2 143/3/2 151/3/2
f 143/4/2 144/4/2 152/4/2
f 151/3/2 143/3/2 152/3/2
f 152/4/2 144/4/2 153/4/2
f 154/2/2 155/2/2 162/2/2
f 162/2/2 155/2/2 163/2/2
f 156/2/2 157/2/2 164/2/2
f 164/2/2 157/2/2 165/2/2
f 158/2/2 159/2/2 166/2/2
f 166/2/2 159/2/2 167/2/2
f 160/2/2 161/2/2 170/2/2
f 162/4/2 163/4/2 171/4/2
f 170/2/2 161/2/2 171/2/2
f 164/4/2 165/4/2 171/4/2
f 161/4/2 162/4/2 171/4/2
f 163/4/2 164/4/2 171/4/2
f 171/4/2 165/4/2 172/4/2
f 172/4/2 165/4/2 173/4/2
f 173/4/2 165/4/2 174/4/2
f 174/4/2 165/4/2 175/4/2
f 175/4/2 165/4/2 176/4/2
f 166/4/2 167/4/2 177/4/2
f 177/4/2 167/4/2 178/4/2
f 168/4/2 169/4/2 179/4/2
f 179/4/2 169/4/2 180/4/2
f 172/4/2 173/4/2 181/4/2
f 181/4/2 173/4/2 182/4/2
f 174/4/2 175/4/2 183/4/2
f 183/4/2 175/4/2 184/4/2
f 185/4/2 186/4/2 197/4/2
f 197/4/2 186/4/2 198/4/2
f 187/4/2 188/4/2 199/4/2
f 199/4/2 188/4/2 200/4/2
f 189/4/2 190/4/2 201/4/2
f 201/4/2 190/4/2 202/4/2
f 191/4/2 192/4/2 203/4/2
f 192/3/2 193/3/2 204/3/2
f 203/4/2 192/4/2 204/4/2
f 193/2/2 194/2/2 205/2/2
f 204/3/2 193/3/2 205/3/2
f 205/2/2 194/2/2 206/2/2
f 195/2/2 196/2/2 207/2/2
f 207/2/2 196/2/2 208/2/2
f 211/2/3 210/2/3 209/2/3
f 212/2/3 210/2/3 211/2/3
f 214/1/3 212/1/3 211/1/3
f 215/2/3 213/2/3 212/2/3
f 215/1/3 212/1/3 214/1/3
f 216/2/3 213/2/3 215/2/3
f 217/4/3 215/4/3 214/4/3
f 218/4/3 215/4/3 217/4/3
f 219/2/3 218/2/3 217/2/3
f 220/2/3 218/2/3 219/2/3
f 223/2/3 222/2/3 221/2/3
f 224/2/3 222/2/3 223/2/3
f 227/2/3 226/2/3 225/2/3
f 228/2/3 226/2/3 227/2/3
f 233/3/3 230/3/3 229/3/3
f 234/3/3 230/3/3 233/3/3
f 235/2/3 232/2/3 231/2/3
f 236/2/3 232/2/3 235/2/3
f 237/4/3 236/4/3 235/4/3
f 238/4/3 236/4/3 237/4/3
f 241/4/3 240/4/3 239/4/3
f 242/4/3 240/4/3 241/4/3
f 245/2/3 244/2/3 243/2/3
f 246/2/3 244/2/3 245/2/3
f 247/2/3 244/2/3 246/2/3
f 250/4/3 249/4/3 248/4/3
f 251/4/3 249/4/3 250/4/3
f 255/4/3 253/4/3 252/4/3
f 256/4/3 253/4/3 255/4/3
f 257/4/3 253/4/3 256/4/3
f 258/2/3 255/2/3 254/2/3
f 258/3/3 256/3/3 255/3/3
f 259/3/3 256/3/3 258/3/3
f 262/2/3 258/2/3 254/2/3
f 263/2/3 258/2/3 262/2/3
f 265/3/3 261/3/3 260/3/3
f 266/3/3 261/3/3 265/3/3
f 267/4/3 265/4/3 264/4/3
f 268/4/3 265/4/3 267/4/3
f 271/4/3 270/4/3 269/4/3
f 272/4/3 270/4/3 271/4/3
f 275/4/3 274/4/3 273/4/3
f 276/4/3 274/4/3 275/4/3
f 279/4/3 278/4/3 277/4/3
f 280/4/3 278/4/3 279/4/3
f 283/4/3 282/4/3 281/4/3
f 284/4/3 282/4/3 283/4/3
f 287/4/3 286/4/3 285/4/3
f 288/4/3 286/4/3 287/4/3
f 289/4/3 286/4/3 288/4/3
f 292/4/3 291/4/3 290/4/3
f 293/4/3 291/4/3 292/4/3
f 296/4/3 295/4/3 294/4/3
f 297/4/3 295/4/3 296/4/3
f 298/2/4 299/2/4 300/2/4
f 300/2/4 299/2/4 301/2/4
f 302/2/4 303/2/4 304/2/4
f 304/2/4 303/2/4 305/2/4
f 306/2/4 307/2/4 308/2/4
f 308/2/4 307/2/4 309/2/4
f 310/2/4 311/2/4 312/2/4
f 312/2/4 311/2/4 313/2/4
f 314/4/4 315/4/4 316/4/4
f 316/4/4 315/4/4 317/4/4
f 318/4/4 319/4/4 321/4/4
f 321/4/4 319/4/4 322/4/4
f 320/4/4 321/4/4 323/4/4
f 323/4/4 321/4/4 324/4/4
f 325/2/4 326/2/4 327/2/4
f 327/2/4 326/2/4 328/2/4
f 329/4/4 330/4/4 331/4/4
f 331/4/4 330/4/4 332/4/4
f 333/4/4 334/4/4 335/4/4
f 335/4/4 334/4/4 336/4/4
f 336/4/4 334/4/4 337/4/4
f 336/3/4 337/3/4 338/3/4
f 338/3/4 337/3/4 339/3/4
f 340/4/4 341/4/4 342/4/4
f 342/4/4 341/4/4 343/4/4
f 344/4/4 345/4/4 348/4/4
f 348/4/4 345/4/4 349/4/4
f 346/4/4 347/4/4 350/4/4
f 350/4/4 347/4/4 351/4/4
f 352/3/4 353/3/4 354/3/4
f 354/3/4 353/3/4 355/3/4
f 356/4/4 357/4/4 358/4/4
f 358/4/4 357/4/4 359/4/4
f 360/4/4 361/4/4 362/4/4
f 362/4/4 361/4/4 363/4/4
f 364/4/4 365/4/4 366/4/4
f 366/4/4 365/4/4 367/4/4
f 368/2/4 369/2/4 370/2/4
f 370/2/4 369/2/4 371/2/4
f 372/4/4 373/4/4 375/4/4
f 375/4/4 373/4/4 376/4/4
f 374/2/4 375/2/4 377/2/4
f 377/2/4 375/2/4 378/2/4
f 379/4/4 380/4/4 383/4/4
f 383/4/4 380/4/4 384/4/4
f 381/2/4 382/2/4 385/2/4
f 382/4/4 383/4/4 386/4/4
f 385/2/4 382/2/4 386/2/4
f 386/4/4 383/4/4 387/4/4
f 388/4/4 389/4/4 390/4/4
f 390/4/4 389/4/4 391/4/4
f 392/2/4 393/2/4 394/2/4
f 394/2/4 393/2/4 395/2/4
f 396/2/4 397/2/4 398/2/4
f 398/2/4 397/2/4 399/2/4
f 400/4/4 401/4/4 402/4/4
f 402/4/4 401/4/4 403/4/4
f 407/2/5 405/2/5 404/2/5
f 407/4/5 406/4/5 405/4/5
f 408/4/5 406/4/5 407/4/5
f 409/2/5 407/2/5 404/2/5
f 411/2/5 409/2/5 404/2/5
f 411/4/5 410/4/5 409/4/5
f 412/4/5 410/4/5 411/4/5
f 414/2/5 411/2/5 404/2/5
f 415/2/5 411/2/5 414/2/5
f 415/2/5 414/2/5 413/2/5
f 417/2/5 415/2/5 413/2/5
f 417/4/5 416/4/5 415/4/5
f 418/4/5 416/4/5 417/4/5
f 419/2/5 417/2/5 413/2/5
f 421/2/5 419/2/5 413/2/5
f 422/2/5 419/2/5 421/2/5
f 423/2/5 421/2/5 413/2/5
f 424/2/5 421/2/5 423/2/5
f 425/2/5 419/2/5 422/2/5
f 426/4/5 420/4/5 419/4/5
f 426/2/5 419/2/5 425/2/5
f 427/4/5 420/4/5 426/4/5
f 428/4/5 420/4/5 427/4/5
f 429/3/5 428/3/5 427/3/5
f 430/3/5 428/3/5 429/3/5
f 431/2/5 430/2/5 429/2/5
f 432/2/5 430/2/5 431/2/5
f 438/2/5 434/2/5 433/2/5
f 439/1/5 435/1/5 434/1/5
f 439/2/5 434/2/5 438/2/5
f 440/4/5 436/4/5 435/4/5
f 440/1/5 435/1/5 439/1/5
f 441/2/5 437/2/5 436/2/5
f 441/4/5 436/4/5 440/4/5
f 442/2/5 437/2/5 441/2/5
f 444/1/5 440/1/5 439/1/5
f 445/2/5 441/2/5 440/2/5
f 445/1/5 440/1/5 444/1/5
f 446/2/5 441/2/5 445/2/5
f 447/2/5 444/2/5 443/2/5
f 448/1/5 445/1/5 444/1/5
f 448/2/5 444/2/5 447/2/5
f 450/1/5 445/1/5 448/1/5
f 451/2/5 450/2/5 449/2/5
f 452/1/5 445/1/5 450/1/5
f 452/2/5 450/2/5 451/2/5
f 455/1/5 445/1/5 452/1/5
f 456/1/5 445/1/5 455/1/5
f 457/4/5 454/4/5 453/4/5
f 458/4/5 454/4/5 457/4/5
f 463/4/5 460/4/5 459/4/5
f 464/4/5 460/4/5 463/4/5
f 465/3/5 462/3/5 461/3/5
f 466/3/5 462/3/5 465/3/5
f 468/4/5 465/4/5 464/4/5
f 469/4/5 468/4/5 467/4/5
f 470/4/5 465/4/5 468/4/5
f 470/4/5 468/4/5 469/4/5
f 471/3/5 466/3/5 465/3/5
f 471/4/5 465/4/5 470/4/5
f 472/3/5 470/3/5 469/3/5
f 473/3/5 470/3/5 472/3/5
f 474/3/5 466/3/5 471/3/5
f 475/3/5 466/3/5 474/3/5
f 476/2/5 473/2/5 472/2/5
f 477/2/5 473/2/5 476/2/5
f 478/4/5 475/4/5 474/4/5
f 479/4/5 475/4/5 478/4/5
f 482/2/5 481/2/5 480/2/5
f 483/2/5 481/2/5 482/2/5
f 486/4/5 485/4/5 484/4/5
f 487/4/5 485/4/5 486/4/5
f 488/4/6 489/4/6 490/4/6
f 490/4/6 489/4/6 491/4/6
f 492/4/6 493/4/6 494/4/6
f 494/4/6 493/4/6 495/4/6
f 496/2/6 497/2/6 499/2/6
f 497/4/6 498/4/6 500/4/6
f 499/2/6 497/2/6 500/2/6
f 500/4/6 498/4/6 501/4/6
f 502/2/6 503/2/6 507/2/6
f 507/2/6 503/2/6 508/2/6
f 504/2/6 505/2/6 509/2/6
f 505/4/6 506/4/6 510/4/6
f 509/2/6 505/2/6 510/2/6
f 510/4/6 506/4/6 511/4/6
f 511/4/6 506/4/6 512/4/6
f 512/4/6 506/4/6 513/4/6
f 512/3/6 513/3/6 514/3/6
f 514/3/6 513/3/6 515/3/6
f 514/2/6 515/2/6 516/2/6
f 516/2/6 515/2/6 517/2/6
f 518/2/6 519/2/6 523/2/6
f 523/2/6 519/2/6 524/2/6
f 520/4/6 521/4/6 525/4/6
f 521/2/6 522/2/6 526/2/6
f 525/4/6 521/4/6 526/4/6
f 526/2/6 522/2/6 527/2/6
f 525/2/6 526/2/6 530/2/6
f 530/2/6 526/2/6 531/2/6
f 528/2/6 529/2/6 532/2/6
f 532/2/6 529/2/6 533/2/6
f 530/4/6 531/4/6 534/4/6
f 534/4/6 531/4/6 535/4/6
f 536/4/6 537/4/6 538/4/6
f 538/4/6 537/4/6 539/4/6
f 542/4/6 543/4/6 544/4/6
f 544/4/6 543/4/6 545/4/6
f 540/3/6 541/3/6 546/3/6
f 546/3/6 541/3/6 547/3/6
f 546/4/6 547/4/6 550/4/6
f 547/2/6 548/2/6 551/2/6
f 550/4/6 547/4/6 551/4/6
f 548/4/6 549/4/6 552/4/6
f 551/2/6 548/2/6 552/2/6
f 552/4/6 549/4/6 553/4/6
f 554/4/6 555/4/6 558/4/6
f 558/4/6 555/4/6 559/4/6
f 559/4/6 555/4/6 560/4/6
f 556/4/6 557/4/6 561/4/6
f 561/4/6 557/4/6 562/4/6
f 559/4/6 560/4/6 564/4/6
f 563/4/6 564/4/6 565/4/6
f 564/4/6 560/4/6 566/4/6
f 565/4/6 564/4/6 566/4/6
f 560/3/6 561/3/6 567/3/6
f 566/4/6 560/4/6 567/4/6
f 565/3/6 566/3/6 568/3/6
f 568/3/6 566/3/6 569/3/6
f 567/3/6 561/3/6 570/3/6
f 570/3/6 561/3/6 571/3/6
f 568/2/6 569/2/6 572/2/6
f 572/2/6 569/2/6 573/2/6
f 570/4/6 571/4/6 574/4/6
f 574/4/6 571/4/6 575/4/6
f 576/2/6 577/2/6 579/2/6
f 578/2/6 579/2/6 580/2/6
f 579/2/6 577/2/6 581/2/6
f 580/2/6 579/2/6 581/2/6
f 581/2/6 577/2/6 582/2/6
f 583/4/6 584/4/6 587/4/6
f 587/4/6 584/4/6 588/4/6
f 585/2/6 586/2/6 589/2/6
f 586/2/6 587/2/6 589/2/6
f 589/2/6 587/2/6 590/2/6
f 589/4/6 590/4/6 592/4/6
f 590/2/6 587/2/6 593/2/6
f 592/4/6 590/4/6 593/4/6
f 593/2/6 587/2/6 594/2/6
f 591/4/6 592/4/6 596/4/6
f 592/3/6 593/3/6 597/3/6
f 596/4/6 592/4/6 597/4/6
f 597/3/6 593/3/6 598/3/6
f 594/4/6 595/4/6 599/4/6
f 599/4/6 595/4/6 600/4/6
f 601/3/6 602/3/6 603/3/6
f 603/3/6 602/3/6 604/3/6
f 605/4/6 606/4/6 607/4/6
f 607/4/6 606/4/6 608/4/6
f 609/3/6 610/3/6 611/3/6
f 611/3/6 610/3/6 612/3/6
f 611/4/6 612/4/6 613/4/6
f 613/4/6 612/4/6 614/4/6
f 615/3/6 616/3/6 617/3/6
f 617/3/6 616/3/6 618/3/6
f 617/4/6 618/4/6 619/4/6
f 619/4/6 618/4/6 620/4/6
